<?xml version="1.0" encoding="utf-8"?>
<!-- Generator: Adobe Illustrator 19.0.0, SVG Export Plug-In . SVG Version: 6.00 Build 0)  -->
<svg version="1.1" id="Layer_1" xmlns="http://www.w3.org/2000/svg" xmlns:xlink="http://www.w3.org/1999/xlink" x="0px" y="0px"
	 viewBox="0 0 865.1 361.5" style="enable-background:new 0 0 865.1 361.5;" xml:space="preserve">
<style type="text/css">
	.st0{fill:#ffffff;}
	.st1{fill:#000000;}
	.st2{fill:#000000;}
</style>
<g id="XMLID_71_">
	<path id="XMLID_72_" class="st0" d="M67.4,338.9c-34.9,0-61-24.3-61-59.8c0-36.3,26.9-59.5,61.4-59.5c15.8,0,33,5.8,42.4,16.6
		l-18.6,18.6c-5.1-7-14.2-10.4-22.9-10.4c-19,0-32.6,14.7-32.6,34.7c0,20.6,13.3,34.7,32.2,34.7c10.7,0,19.2-4.8,24-11.5l19,17.9
		C101.4,331.7,86.4,338.9,67.4,338.9z"/>
	<path id="XMLID_74_" class="st0" d="M197.9,335.8l-8.8-22.2h-43.8l-8.3,22.2h-29.8l47.5-113.3h26.6l47,113.3H197.9z M167.5,252.8
		l-14.4,38.9h28.5L167.5,252.8z"/>
	<path id="XMLID_77_" class="st0" d="M298.4,335.8l-24.5-45h-9.3v45h-26.9V222.5H281c21.8,0,43.4,8.3,43.4,34.2
		c0,15.2-9,26.1-23.5,30.6l29.6,48.5H298.4z M279,244.6h-14.6V271h13c8.8,0,19.8-2.2,19.8-13.8C297.3,246.7,287.2,244.6,279,244.6z"
		/>
	<path id="XMLID_80_" class="st0" d="M390.4,245.9v89.9H363v-89.9h-32v-23.4h91.4v23.4H390.4z"/>
	<path id="XMLID_82_" class="st1" d="M438.2,222.5h37.6c28.3,0,59.5,18.9,59.5,56.6s-31.2,56.6-59.5,56.6h-37.6V222.5z M449.8,325.6
		h22.9c34.1,0,50.6-23,50.6-46.4s-16.5-46.4-50.6-46.4h-22.9V325.6z"/>
	<path id="XMLID_85_" class="st1" d="M570.9,335.8h-11.5V222.5h33.3c22.4,0,38.7,8.2,38.7,30.2c0,16.8-12.5,27.4-29,29.1l33.1,53.9
		h-14.1l-31.4-53h-19.2V335.8z M570.9,272.9h20c18.4,0,29-6.7,29-20.2c0-14.9-11.4-20.3-28.5-20.3h-20.5V272.9z"/>
	<path id="XMLID_88_" class="st1" d="M708.2,338.7c-33.8,0-59-25.1-59-59.5c0-34.4,25.3-59.5,59-59.5s59,25.1,59,59.5
		C767.2,313.6,741.9,338.7,708.2,338.7z M708.2,229.7c-29.1,0-46.9,23-46.9,49.4c0,26.4,17.8,49.3,46.9,49.3
		c29.1,0,46.9-22.9,46.9-49.3C755,252.8,737.3,229.7,708.2,229.7z"/>
	<path id="XMLID_91_" class="st1" d="M791.2,222.5h32c23,0,38.2,9.9,38.2,30.2s-15.5,30.4-38.6,30.4h-20.2v52.6h-11.5V222.5z
		 M802.7,273.4h19.5c17.9,0,27.7-7.2,27.7-20.6c0-13.9-10.2-20.3-27.7-20.3h-19.5V273.4z"/>
</g>
<path id="XMLID_8_" class="st0" d="M357.2,93.7l49.5,85.7h-35.2c-1.8,0-3.5-1-4.4-2.5l-46.6-80.6c-0.9-1.6-0.9-3.5,0-5.1L367,10.7
	c0.9-1.6,2.6-2.3,4.4-2.3h35L357.2,93.7z"/>
<path id="XMLID_9_" class="st0" d="M414.1,94.8l47.2,84.6h-38.2l-49.7-85.9l49.2-85.1h39c0.4,0,0.9-0.2,1.3-0.1l-48.7,81.2
	C413.3,91.2,413.2,93.1,414.1,94.8z"/>
<path id="XMLID_14_" class="st2" d="M515.2,89.8l-40.4-70l-25.5,42.6l18.1,31.2c1.4,2.3,1.4,5.2,0,7.5l-16.5,28.6l23.2,41.5
	l41.2-71.6C516.9,96.6,516.9,92.8,515.2,89.8z"/>
</svg>
