<?xml version="1.0" encoding="utf-8"?>
<!-- Generator: Adobe Illustrator 19.0.0, SVG Export Plug-In . SVG Version: 6.00 Build 0)  -->
<svg version="1.1" id="Layer_1" xmlns="http://www.w3.org/2000/svg" xmlns:xlink="http://www.w3.org/1999/xlink" x="0px" y="0px"
	 viewBox="0 0 1079 200" style="enable-background:new 0 0 1079 200;" xml:space="preserve">
<style type="text/css">
	.st0{fill:#2D3D8A;}
	.st1{fill:#191919;}
	.st2{fill:#393A43;}
</style>
<path id="XMLID_8_" class="st0" d="M39.7,100.3L89.2,186H53.9c-1.8,0-3.5-1-4.4-2.5L2.9,102.8c-0.9-1.6-0.9-3.5,0-5.1l46.6-80.4
	c0.9-1.6,2.6-2.3,4.4-2.3h35L39.7,100.3z"/>
<path id="XMLID_9_" class="st0" d="M96.7,101.4l47.2,84.6h-38.2L56,100.1L105.2,15h39c0.4,0,0.9-0.2,1.3-0.1L96.7,96.2
	C95.8,97.8,95.7,99.7,96.7,101.4z"/>
<path id="XMLID_14_" class="st1" d="M197.7,96.4l-40.4-70L131.8,69l18.1,31.2c1.4,2.3,1.4,5.2,0,7.5l-16.5,28.6l23.2,41.5l41.2-71.6
	C199.4,103.2,199.4,99.4,197.7,96.4z"/>
<g id="XMLID_58_">
	<path id="XMLID_59_" class="st0" d="M275.9,160c-34.9,0-61-24.3-61-59.8c0-36.3,26.9-59.5,61.4-59.5c15.8,0,33,5.8,42.4,16.6
		l-18.6,18.6c-5.1-7-14.2-10.4-22.9-10.4c-19,0-32.6,14.7-32.6,34.7c0,20.6,13.3,34.7,32.2,34.7c10.7,0,19.2-4.8,24-11.5l19,17.9
		C309.9,152.8,294.9,160,275.9,160z"/>
	<path id="XMLID_61_" class="st0" d="M406.4,156.9l-8.8-22.2h-43.8l-8.3,22.2h-29.8l47.5-113.3h26.6l47,113.3H406.4z M376,73.9
		l-14.4,38.9h28.5L376,73.9z"/>
	<path id="XMLID_64_" class="st0" d="M506.9,156.9l-24.5-45h-9.3v45h-26.9V43.7h43.2c21.8,0,43.4,8.3,43.4,34.2
		c0,15.2-9,26.1-23.5,30.6l29.6,48.5H506.9z M487.5,65.7H473v26.4h13c8.8,0,19.8-2.2,19.8-13.8C505.8,67.8,495.7,65.7,487.5,65.7z"
		/>
	<path id="XMLID_67_" class="st0" d="M598.9,67v89.9h-27.4V67h-32V43.7h91.4V67H598.9z"/>
	<path id="XMLID_69_" class="st2" d="M646.7,43.7h37.6c28.3,0,59.5,18.9,59.5,56.6c0,37.8-31.2,56.6-59.5,56.6h-37.6V43.7z
		 M658.3,146.7h22.9c34.1,0,50.6-23,50.6-46.4c0-23.4-16.5-46.4-50.6-46.4h-22.9V146.7z"/>
	<path id="XMLID_72_" class="st2" d="M779.4,156.9h-11.5V43.7h33.3c22.4,0,38.7,8.2,38.7,30.2c0,16.8-12.5,27.4-29,29.1l33.1,53.9
		h-14.1l-31.4-53h-19.2V156.9z M779.4,94.1h20c18.4,0,29-6.7,29-20.2c0-14.9-11.4-20.3-28.5-20.3h-20.5V94.1z"/>
	<path id="XMLID_75_" class="st2" d="M916.7,159.8c-33.8,0-59-25.1-59-59.5s25.3-59.5,59-59.5s59,25.1,59,59.5
		S950.4,159.8,916.7,159.8z M916.7,50.9c-29.1,0-46.9,23-46.9,49.4s17.8,49.3,46.9,49.3c29.1,0,46.9-22.9,46.9-49.3
		S945.8,50.9,916.7,50.9z"/>
	<path id="XMLID_78_" class="st2" d="M999.7,43.7h32c23,0,38.2,9.9,38.2,30.2s-15.5,30.4-38.6,30.4h-20.2v52.6h-11.5V43.7z
		 M1011.2,94.5h19.5c17.9,0,27.7-7.2,27.7-20.6c0-13.9-10.2-20.3-27.7-20.3h-19.5V94.5z"/>
</g>
</svg>
