<svg xmlns="http://www.w3.org/2000/svg" enable-background="new 0 0 28 27.311" viewBox="0 0 28 27.311"><path d="M28,14c0-7.732-6.268-14-14-14S0,6.268,0,14c0,6.221,4.061,11.488,9.674,13.311c0.767-0.235,0.803-0.702,0.803-0.702s0-1.383,0-2.661c-0.843,0.155-1.89,0.157-2.271,0.157c-0.464,0-2.009-0.386-2.689-2.132c-0.68-1.746-1.947-1.916-1.947-2.225s0.278-0.371,0.278-0.371s0.17,0,0.927,0c0.757,0,1.514,1.267,2.04,2.04s1.792,0.927,2.411,0.927c0.347,0,0.885-0.175,1.294-0.329c0.167-1.082,0.792-1.896,0.792-1.896c-6.243-0.556-6.397-5.223-6.397-7.046c0-1.823,1.484-3.616,1.484-3.616s-0.719-2.04,0.185-3.709c1.947,0.015,3.894,1.483,3.894,1.483S12.238,6.676,14,6.676s3.523,0.556,3.523,0.556s1.947-1.468,3.894-1.483c0.904,1.669,0.185,3.709,0.185,3.709s1.484,1.792,1.484,3.616c0,1.823-0.155,6.49-6.397,7.046c0,0,0.834,1.082,0.834,2.411s0,4.08,0,4.08s0.035,0.466,0.803,0.702C23.939,25.488,28,20.221,28,14z"/></svg>