<?xml version="1.0" standalone="no"?>
<!DOCTYPE svg PUBLIC "-//W3C//DTD SVG 20010904//EN"
 "http://www.w3.org/TR/2001/REC-SVG-20010904/DTD/svg10.dtd">
<svg version="1.0" xmlns="http://www.w3.org/2000/svg"
 width="700.000000pt" height="700.000000pt" viewBox="0 0 700.000000 700.000000"
 preserveAspectRatio="xMidYMid meet">
<metadata>
Created by potrace 1.14, written by Peter Selinger 2001-2017
</metadata>
<g transform="translate(0.000000,700.000000) scale(0.100000,-0.100000)"
fill="#000000" stroke="none">
<path d="M1823 6479 c-37 -8 -84 -33 -104 -55 -9 -11 -77 -125 -152 -254 -74
-129 -144 -251 -155 -270 -12 -19 -36 -62 -55 -95 -61 -108 -73 -129 -141
-243 -36 -62 -66 -115 -66 -118 0 -3 -8 -17 -19 -32 -10 -15 -123 -209 -251
-432 -128 -223 -241 -417 -251 -432 -11 -15 -19 -29 -19 -31 0 -4 -50 -92
-228 -397 -46 -80 -94 -163 -106 -185 -12 -22 -58 -100 -101 -174 -65 -110
-79 -143 -83 -186 -5 -63 -28 -18 271 -535 132 -228 248 -429 257 -446 10 -17
169 -292 353 -610 184 -319 344 -595 354 -614 11 -20 53 -92 93 -160 40 -69
84 -145 98 -170 14 -25 45 -78 69 -118 24 -41 43 -75 43 -77 0 -6 84 -140 95
-150 5 -6 24 -19 40 -30 29 -19 51 -20 648 -20 340 0 620 3 623 6 2 4 -105
196 -237 426 -133 230 -251 434 -262 453 -10 19 -70 123 -132 230 -62 107
-123 213 -135 235 -46 82 -214 371 -236 407 -13 21 -24 39 -24 41 0 3 -61 109
-135 237 -74 128 -135 235 -135 237 0 3 -8 17 -18 31 -11 15 -33 52 -49 82
-17 30 -94 164 -171 298 l-140 243 140 242 c78 133 154 267 171 297 16 30 37
66 47 80 9 14 27 46 41 73 13 26 27 47 31 47 5 0 8 5 8 11 0 6 23 48 50 95 28
47 50 86 50 89 0 2 17 32 39 67 21 35 136 234 256 443 120 209 237 412 260
450 23 39 45 77 48 85 4 8 20 36 35 61 15 25 73 126 130 225 57 98 108 186
113 194 43 70 256 446 253 449 -5 6 -1182 6 -1211 0z"/>
<path d="M3717 6480 c-27 -5 -33 -13 -179 -270 -11 -19 -37 -64 -58 -100 -37
-63 -52 -91 -112 -195 -16 -27 -33 -57 -38 -65 -6 -8 -91 -157 -190 -330 -99
-173 -184 -322 -189 -330 -6 -8 -54 -91 -108 -185 -54 -93 -104 -182 -113
-196 -8 -14 -46 -80 -83 -145 -37 -65 -72 -126 -77 -134 -37 -61 -90 -153 -90
-155 0 -3 -107 -189 -129 -225 -8 -13 -113 -195 -147 -255 -6 -11 -50 -87 -98
-169 l-86 -149 177 -306 c97 -168 185 -322 196 -341 11 -19 43 -75 72 -125 29
-49 188 -324 352 -610 165 -286 326 -565 358 -620 32 -55 66 -114 75 -131 27
-46 313 -544 392 -679 l70 -121 649 0 c357 0 649 2 649 4 0 2 -23 45 -52 96
-28 50 -62 111 -76 136 -76 138 -154 277 -162 290 -15 24 -152 272 -171 308
-10 18 -22 38 -27 45 -5 7 -26 44 -46 82 -20 39 -41 77 -46 85 -11 17 -252
447 -307 548 -20 37 -46 84 -57 104 -111 197 -316 564 -339 608 -16 30 -40 72
-53 92 -13 21 -24 39 -24 42 0 2 -34 64 -76 137 -42 74 -80 143 -85 154 -5 11
-13 27 -19 35 -55 82 -83 149 -84 200 -1 56 4 68 97 223 355 590 1161 1938
1187 1982 10 17 103 173 208 348 l191 317 -47 1 c-279 3 -1285 3 -1305 -1z"/>
<path d="M5470 5969 c-36 -61 -74 -126 -85 -145 -11 -18 -58 -98 -105 -176
-46 -79 -92 -154 -101 -168 -9 -14 -128 -210 -263 -437 l-246 -411 28 -50 c15
-28 42 -77 61 -109 19 -32 42 -71 51 -88 33 -59 204 -351 246 -423 24 -40 44
-75 44 -78 0 -2 11 -21 23 -42 59 -93 175 -300 185 -331 29 -83 14 -138 -79
-301 -39 -69 -78 -136 -85 -150 -8 -14 -106 -182 -218 -375 l-203 -350 18 -30
c9 -16 29 -51 43 -78 33 -60 60 -110 123 -222 28 -49 63 -112 78 -140 15 -27
47 -84 70 -125 23 -41 53 -95 67 -120 14 -25 58 -103 98 -175 40 -71 89 -159
109 -195 20 -36 68 -123 106 -192 39 -70 73 -128 78 -128 4 0 12 10 17 23 17
37 75 136 88 149 7 7 12 15 12 20 0 4 22 45 49 90 62 107 394 685 428 746 14
26 34 58 43 72 9 14 19 30 21 35 3 8 112 199 139 245 41 68 90 153 90 155 0 4
114 201 130 225 6 8 13 22 17 30 4 8 44 79 90 158 46 79 94 162 107 185 13 23
57 101 99 174 101 174 111 202 111 293 0 92 -10 114 -164 380 -62 107 -121
209 -130 225 -10 17 -102 176 -205 355 -319 551 -395 683 -395 688 0 3 -6 13
-14 21 -7 9 -27 41 -43 71 -39 71 -37 69 -253 440 -101 173 -190 327 -197 343
-8 15 -15 27 -16 27 -1 0 -31 -50 -67 -111z"/>
</g>
</svg>
